HIERARCHY
ROOT pelvis
{
  OFFSET 0 100 0
  CHANNELS 6 Xposition Yposition Zposition Zrotation Xrotation Yrotation
  JOINT pelvis_right_femur
  {
    OFFSET -10.78128 -3.44521 -0.5502486
    CHANNELS 3 Zrotation Xrotation Yrotation
    JOINT right_femur_tibia
    {
      OFFSET -0.8047443 -44.0398 -0.1307829
      CHANNELS 3 Zrotation Xrotation Yrotation
      JOINT right_tibia_foot
      {
        OFFSET 3.006224 -47.83518 -5
        CHANNELS 3 Zrotation Xrotation Yrotation
        End Site
        {
          OFFSET 0 -5 15
        }
      }
    }
  }
  JOINT pelvis_left_femur
  {
    OFFSET 10.78128 -3.44521 -0.5502486
    CHANNELS 3 Zrotation Xrotation Yrotation
    JOINT left_femur_tibia
    {
      OFFSET 0.8047443 -44.0398 -0.1307829
      CHANNELS 3 Zrotation Xrotation Yrotation
      JOINT left_tibia_foot
      {
        OFFSET -4.370144 -48.10324 -4.275266
        CHANNELS 3 Zrotation Xrotation Yrotation
        End Site
        {
          OFFSET 0 -5 15
        }
      }
    }
  }
  JOINT pelvis_spine1
  {
    OFFSET 0 6.468898 -3.129235
    CHANNELS 3 Zrotation Xrotation Yrotation
    JOINT spine1
    {
      OFFSET 0 23.15396 4.99043
      CHANNELS 3 Zrotation Xrotation Yrotation
      JOINT spine2
      {
        OFFSET 0 20.79997 -5.064912
        CHANNELS 3 Zrotation Xrotation Yrotation
        JOINT neck
        {
          OFFSET 0 14.38658 9.616178
          CHANNELS 3 Zrotation Xrotation Yrotation
          End Site
          {
            OFFSET 0 20 0
          }
        }
      }
      JOINT right_manubrium
      {
        OFFSET -5.722621 16.35077 3.967754
        CHANNELS 3 Zrotation Xrotation Yrotation
        JOINT right_clavicle
        {
          OFFSET -13.16364 1.694482 -4.693211
          CHANNELS 3 Zrotation Xrotation Yrotation
          JOINT right_humerus
          {
            OFFSET -28.5034 -0.3100689 -2.792744
            CHANNELS 3 Zrotation Xrotation Yrotation
            JOINT right_radius
            {
              OFFSET -25.15693 0.02248979 -1.271978
              CHANNELS 3 Zrotation Xrotation Yrotation
              End Site
              {
                OFFSET -15 0 0
              }
            }
          }
        }
      }
      JOINT left_manubrium
      {
        OFFSET 5.722621 16.35077 3.967754
        CHANNELS 3 Zrotation Xrotation Yrotation
        JOINT left_clavicle
        {
          OFFSET 13.16364 1.694482 -4.693211
          CHANNELS 3 Zrotation Xrotation Yrotation
          JOINT left_humerus
          {
            OFFSET 29.39168 -1.063119 -2.237045
            CHANNELS 3 Zrotation Xrotation Yrotation
            JOINT left_radius
            {
              OFFSET 24.59957 -0.9528479 0.9047498
              CHANNELS 3 Zrotation Xrotation Yrotation
              End Site
              {
                OFFSET 15 -0 -0
              }
            }
          }
        }
      }
    }
  }
}
MOTION
Frames: 11
Frame Time: 0.0416666666667
0 103.5113 0 0.9164382 -1.358006 -0.04593299 3.309336 -17.37901 8.033622 -0 36.51541 -0 -5.515928 -15.92485 -3.596735 -6.827403 12.16915 -23.03018 -0 5.561582 -0 6.092772 -18.28554 25.30004 -2.017579 -2.759124 5.836833 2.259531 9.578719 -7.157724 1.527895 20.92394 6.304115 3.103716 -25.66566 9.145673 5.42581 -19.62814 10.60086 84.01338 34.92971 -17.18409 -0 0 16.80627 -8.100645 9.122437 4.078902 7.050907 -20.71258 0.3774603 -94.63162 24.04855 23.29662 0 0 -13.60024 11.74351 15.723 0.8613623
0.232447 103.3633 1.611811 0.2240087 -0.7373671 -0.177561 4.296697 -20.41443 8.948959 -0 36.36584 -0 -5.597372 -14.49413 -4.046349 -6.326425 11.93785 -22.62373 -0 6.42085 -0 4.978476 -19.49002 25.02862 -1.990275 -2.639532 5.637014 2.397498 9.648287 -7.31781 1.474998 20.83092 6.405312 3.164314 -25.70003 9.115904 5.469643 -19.35955 10.7145 84.35998 34.97139 -17.64372 -0 0 16.14874 -8.342475 9.284928 4.304274 7.057167 -20.86158 0.2258456 -94.11426 23.68834 22.62296 0 0 -14.14179 11.79869 15.37755 0.7292645
0.4795972 103.0468 3.492266 -0.2384282 0.1728485 -0.2440835 5.117433 -24.23772 8.825987 -0 33.33787 -0 -5.658082 -12.61945 -3.914289 -6.046754 11.87018 -21.52054 -0 6.395253 -0 5.1751 -20.48133 24.27722 -1.83833 -2.611189 5.229391 2.659597 9.72676 -7.692899 1.509304 20.58587 6.495621 3.259003 -25.94385 9.196722 5.556621 -18.95737 10.74011 85.19016 34.72825 -18.94923 -0 0 15.24269 -8.004079 9.424602 4.034255 7.30235 -21.25438 0.09531241 -93.73602 23.48964 21.74879 0 0 -14.91561 11.81941 15.4682 0.7143274
0.7384208 102.518 5.756057 -0.5412016 1.230855 -0.2021215 5.815682 -28.1349 8.382534 -0 29.0965 -0 -5.624729 -10.7727 -3.568326 -5.907474 12.02585 -20.26093 -0 6.20838 -0 5.942031 -21.27973 23.43452 -1.732567 -2.517619 4.855665 2.905866 9.816555 -8.021007 1.49455 20.38112 6.621098 3.353844 -26.10782 9.23488 5.639046 -18.54012 10.82937 85.912 34.61768 -20.02347 -0 0 14.26449 -7.942946 9.614699 4.014206 7.454862 -21.59015 -0.07976089 -93.16172 23.11334 20.76196 0 0 -15.77147 11.91908 15.27689 0.5622472
0.9961705 101.7823 8.532562 -0.7508471 2.347204 -0.0156757 6.379137 -31.79878 7.665694 -0 24.13707 -0 -5.649812 -8.632227 -3.06361 -5.852212 12.44307 -18.89385 -0 6.403971 -0 6.783574 -21.89855 22.41668 -1.634911 -2.438223 4.511043 3.126471 9.895442 -8.325734 1.484013 20.19128 6.728678 3.445963 -26.23702 9.255931 5.719301 -18.15381 10.90341 86.56418 34.48578 -21.01118 -0 0 13.38358 -7.895852 9.802254 3.988596 7.604366 -21.90977 -0.2381677 -92.65749 22.79396 19.86535 0 0 -16.55289 11.95791 15.14044 0.485146
1.236423 100.9102 11.94738 -0.9536529 3.431608 0.347035 6.834989 -34.81094 6.765138 -0 19.15538 -0 -5.89129 -6.082024 -2.466607 -5.803325 13.11343 -17.51983 -0 7.558396 -0 7.137424 -22.27053 21.05758 -1.569164 -2.343571 4.223746 3.304258 9.968112 -8.575734 1.454343 20.03902 6.831159 3.534045 -26.28612 9.23447 5.790934 -17.8043 10.98952 87.07926 34.40044 -21.78095 -0 0 12.59863 -8.007577 10.00755 4.079731 7.704306 -22.17734 -0.398209 -92.14299 22.46748 19.03377 0 0 -17.27628 11.94957 14.93076 0.4458792
1.442625 100.0333 16.11561 -1.221919 4.340366 0.9058489 7.187107 -36.59901 5.72704 -0 14.86498 -0 -6.45206 -3.29425 -1.855528 -5.661299 14.0189 -16.2264 -0 10.21863 -0 6.332134 -22.22594 19.05396 -1.530671 -2.250284 4.003116 3.431543 10.02874 -8.765642 1.416996 19.92691 6.911239 3.612452 -26.2619 9.172207 5.849782 -17.5116 11.07009 87.44495 34.33069 -22.33028 -0 0 11.96889 -8.23601 10.2132 4.242451 7.762456 -22.38669 -0.5451644 -91.68868 22.19559 18.34385 0 0 -17.8651 11.84883 14.72082 0.5059256
1.602913 99.34582 21.10152 -1.617083 4.890705 1.637372 7.516477 -36.49619 4.724492 -0 12.13605 -0 -7.31491 -0.8580462 -1.354844 -5.298077 15.02286 -15.11471 -0 14.86375 -0 3.809645 -21.36275 16.19569 -1.523482 -2.153167 3.856923 3.503127 10.07863 -8.887534 1.36869 19.86014 6.967887 3.679591 -26.15435 9.061854 5.892408 -17.27982 11.1488 87.64499 34.28229 -22.6302 -0 0 11.50349 -8.614564 10.42121 4.50108 7.767887 -22.52742 -0.6829191 -91.28601 21.97576 17.80301 0 0 -18.30588 11.64092 14.49138 0.6784323
1.717567 99.07654 26.84543 -2.183881 4.904262 2.420371 8.033077 -34.07871 4.116516 -0 11.82943 -0 -8.320204 0.347749 -1.116714 -4.583644 15.66466 -14.20177 -0 21.69827 -0 -0.3143584 -19.01612 12.75336 -1.547777 -2.053915 3.792183 3.514663 10.11709 -8.935123 1.311429 19.84172 6.995321 3.732412 -25.96203 8.901152 5.915577 -17.11831 11.22278 87.66521 34.24597 -22.6614 -0 0 11.22618 -9.147437 10.62551 4.855985 7.716231 -22.59043 -0.8092646 -90.95131 21.82278 17.43913 0 0 -18.56621 11.30661 14.25162 0.987058
1.807841 99.39343 33.09636 -2.900469 4.310429 2.993412 8.907468 -29.78424 4.233233 -0 14.03133 -0 -9.22531 -0.308928 -1.202479 -3.521372 15.01861 -13.25382 -0 30.36009 -0 -4.593062 -14.73312 9.783169 -1.606856 -1.948906 3.820755 3.458304 10.14497 -8.897134 1.242921 19.87618 6.992288 3.769231 -25.67436 8.684806 5.915252 -17.03845 11.29464 87.48085 34.2214 -22.38252 -0 0 11.16148 -9.863597 10.82352 5.329566 7.59775 -22.56227 -0.9256505 -90.68366 21.73554 17.26961 0 0 -18.63037 10.83364 13.98248 1.445062
1.918632 100.283 39.46238 -3.528446 3.181969 3.032838 9.853768 -24.90034 4.878825 -0 17.09325 -0 -9.850773 -2.465406 -1.44894 -2.456243 12.08094 -11.88613 -0 40.08952 -0 -6.809495 -9.260114 8.458198 -1.704082 -1.835736 3.960906 3.321939 10.16304 -8.757057 1.161053 19.96827 6.958127 3.788304 -25.27898 8.40945 5.885783 -17.06044 11.3667 87.05766 34.20637 -21.73537 -0 0 11.35117 -10.79175 11.00817 5.945317 7.403087 -22.42504 -1.030859 -90.48896 21.7121 17.32389 0 0 -18.48 10.21584 13.66023 2.060771
